<svg t="1569029120202" class="icon" viewBox="0 0 1024 1024" version="1.1" xmlns="http://www.w3.org/2000/svg" p-id="4848" width="128" height="128"><path d="M512 886.272c-207.36 0-374.272-166.912-374.272-374.272S304.64 137.728 512 137.728s374.272 166.912 374.272 374.272-166.912 374.272-374.272 374.272m0 86.016c253.44 0 460.288-207.36 460.288-460.288S765.44 51.712 512 51.712 51.712 258.56 51.712 512s206.848 460.288 460.288 460.288z" fill="#1296db" p-id="4849"></path><path d="M425.472 296.448c11.264 0 23.04 2.56 31.232 11.264L660.48 511.488l-203.776 203.776c-17.408 17.408-43.008 17.408-59.904 0-17.408-17.408-17.408-43.008 0-59.904l140.8-140.8L396.8 373.76c-17.408-17.408-17.408-43.008 0-59.904 8.704-8.704 17.408-17.408 28.672-17.408z" fill="#1296db" p-id="4850"></path></svg>
