<svg t="1569029027460" class="icon" viewBox="0 0 1024 1024" version="1.1" xmlns="http://www.w3.org/2000/svg" p-id="2148" width="128" height="128"><path d="M512 131.657143c210.651429 0 380.342857 169.691429 380.342857 380.342857s-169.691429 380.342857-380.342857 380.342857-380.342857-169.691429-380.342857-380.342857 169.691429-380.342857 380.342857-380.342857m0-87.771429c-257.462857 0-468.114286 210.651429-468.114286 468.114286s210.651429 468.114286 468.114286 468.114286 468.114286-210.651429 468.114286-468.114286-210.651429-468.114286-468.114286-468.114286z" fill="#1296db" p-id="2149"></path><path d="M599.771429 731.428571c-11.702857 0-23.405714-2.925714-32.182858-11.702857l-207.725714-207.725714 207.725714-207.725714c17.554286-17.554286 43.885714-17.554286 61.44 0 17.554286 17.554286 17.554286 43.885714 0 61.44l-143.36 143.36 143.36 143.36c17.554286 17.554286 17.554286 43.885714 0 61.44-5.851429 14.628571-17.554286 17.554286-29.257142 17.554285z" fill="#1296db" p-id="2150"></path></svg>
